<svg xmlns="http://www.w3.org/2000/svg" viewBox="0 0 450.82 95.34"><defs><style>.cls-1{fill:#f7931e;}</style></defs><g id="Calque_1" data-name="Calque 1"><path d="M253.07,227.56a38,38,0,0,1-27.64-11.63,39.72,39.72,0,0,1-8.26-12.84,42.05,42.05,0,0,1-3-15.91,41.43,41.43,0,0,1,3-15.76,39.82,39.82,0,0,1,8.26-12.79A38.66,38.66,0,0,1,237.77,150a37.35,37.35,0,0,1,15.3-3.12,39.47,39.47,0,0,1,13.34,2,38.49,38.49,0,0,1,11.23,6.65,5.36,5.36,0,0,1,1.26,1.26,4.07,4.07,0,0,1,.61,1.31,7,7,0,0,1,.15,1.56,4.17,4.17,0,0,1-1.36,3.17,5.23,5.23,0,0,1-7,.15,29.89,29.89,0,0,0-7.7-4.93,27.07,27.07,0,0,0-10.53-1.71,26.37,26.37,0,0,0-11.18,2.41,29.48,29.48,0,0,0-9.21,6.65,30.55,30.55,0,0,0-6.19,9.82,33.43,33.43,0,0,0,0,24,30.55,30.55,0,0,0,6.19,9.82,28.86,28.86,0,0,0,9.21,6.6,27.69,27.69,0,0,0,20.9.6,37.42,37.42,0,0,0,8.81-4.88,5.32,5.32,0,0,1,3.58-1.16,4.53,4.53,0,0,1,3,1.41,4.84,4.84,0,0,1,1.21,3.47,5,5,0,0,1-.41,2,5.5,5.5,0,0,1-1.21,1.76,40.43,40.43,0,0,1-11.63,6.55A38.57,38.57,0,0,1,253.07,227.56Z" transform="translate(-97.14 -135.88)"/><path d="M332.42,227.56a42.87,42.87,0,0,1-16.21-3,36.87,36.87,0,0,1-12.64-8.36,37.75,37.75,0,0,1-8.2-12.79,46.59,46.59,0,0,1,0-32.47,37.93,37.93,0,0,1,8.2-12.74,36.87,36.87,0,0,1,12.64-8.36,45.61,45.61,0,0,1,32.38,0A37.17,37.17,0,0,1,369.48,171a46.59,46.59,0,0,1,0,32.47,37.06,37.06,0,0,1-20.89,21.15A42.56,42.56,0,0,1,332.42,227.56Zm0-9.47a30,30,0,0,0,12-2.36,28.83,28.83,0,0,0,15.71-16.37,35.42,35.42,0,0,0,0-24.36,28.9,28.9,0,0,0-6.2-9.82,28.35,28.35,0,0,0-9.51-6.5,32.51,32.51,0,0,0-24.07,0,28,28,0,0,0-9.47,6.5,30,30,0,0,0-6.19,9.82,34.52,34.52,0,0,0,0,24.36,30,30,0,0,0,6.19,9.82,28.55,28.55,0,0,0,9.47,6.55A30,30,0,0,0,332.42,218.09Z" transform="translate(-97.14 -135.88)"/><path d="M428.64,227.56A37.93,37.93,0,0,1,401,215.93a39.72,39.72,0,0,1-8.26-12.84,42.05,42.05,0,0,1-3-15.91,41.43,41.43,0,0,1,3-15.76A39.82,39.82,0,0,1,401,158.63,38.62,38.62,0,0,1,413.33,150a37.39,37.39,0,0,1,15.31-3.12,39.51,39.51,0,0,1,13.34,2,38.49,38.49,0,0,1,11.23,6.65,5.36,5.36,0,0,1,1.26,1.26,3.83,3.83,0,0,1,.6,1.31,7,7,0,0,1,.15,1.56,4.13,4.13,0,0,1-1.36,3.17,5.25,5.25,0,0,1-3.27,1.41,5.3,5.3,0,0,1-3.73-1.26,29.72,29.72,0,0,0-7.7-4.93,27,27,0,0,0-10.52-1.71,26.37,26.37,0,0,0-11.18,2.41,29.48,29.48,0,0,0-9.21,6.65,30.58,30.58,0,0,0-6.2,9.82,33.58,33.58,0,0,0,0,24,30.58,30.58,0,0,0,6.2,9.82,28.86,28.86,0,0,0,9.21,6.6,27.69,27.69,0,0,0,20.9.6,37.42,37.42,0,0,0,8.81-4.88,5.31,5.31,0,0,1,3.57-1.16,4.49,4.49,0,0,1,3,1.41,4.79,4.79,0,0,1,1.21,3.47,5,5,0,0,1-.4,2,5.5,5.5,0,0,1-1.21,1.76,40.56,40.56,0,0,1-11.63,6.55A38.61,38.61,0,0,1,428.64,227.56Z" transform="translate(-97.14 -135.88)"/><path d="M508,227.56a42.87,42.87,0,0,1-16.21-3,36.77,36.77,0,0,1-12.64-8.36,37.78,37.78,0,0,1-8.21-12.79,46.59,46.59,0,0,1,0-32.47,38,38,0,0,1,8.21-12.74,36.77,36.77,0,0,1,12.64-8.36,45.58,45.58,0,0,1,32.37,0,37.15,37.15,0,0,1,20.9,21.1,46.59,46.59,0,0,1,0,32.47,37,37,0,0,1-20.9,21.15A42.5,42.5,0,0,1,508,227.56Zm0-9.47a30,30,0,0,0,12-2.36,28.74,28.74,0,0,0,15.71-16.37,35.27,35.27,0,0,0,0-24.36,28.87,28.87,0,0,0-6.19-9.82,28.49,28.49,0,0,0-9.52-6.5,32.48,32.48,0,0,0-24.06,0,27.89,27.89,0,0,0-9.47,6.5A29.81,29.81,0,0,0,480.3,175a34.52,34.52,0,0,0,0,24.36,29.81,29.81,0,0,0,6.19,9.82,28.45,28.45,0,0,0,9.47,6.55A30,30,0,0,0,508,218.09Z" transform="translate(-97.14 -135.88)"/></g><g id="Calque_5" data-name="Calque 5"><path class="cls-1" d="M148.22,191.29a31.47,31.47,0,0,1,2.56,12.54,38,38,0,0,1-4.9,19.07c-1.68,3-3.57,6.09-6.89,7.73a5.66,5.66,0,0,1-5.94-.57c-2.73-1.79-4.27-4.55-6.07-7.13-2.23-3.17-4.47-6.32-6.83-9.39-2-2.6-5-4-7.85-5.34-3.31-1.56-6.69-2.95-10-4.58-2.16-1.07-4.17-2.43-4.93-5-.94-3.17.73-5.47,2.61-7.63a36.83,36.83,0,0,1,17-10.64c7.89-2.53,15.77-2.52,23.13,1.85A21.37,21.37,0,0,1,148.22,191.29Zm-3.1.88.29-.29a61.12,61.12,0,0,0-5.17-5.6c-4-3.4-8.8-4.6-14-4.32a33.91,33.91,0,0,0-24.06,11.3c-3.2,3.52-2.91,4.76,1.06,7.3a63.51,63.51,0,0,0,6.06,2.88c3.18,1.58,6.42,3.08,9.48,4.85,3.69,2.14,5.94,5.67,8.27,9.12,2.16,3.2,4.43,6.35,6.86,9.35,1.45,1.79,3.47,1.7,5.15.1a14.43,14.43,0,0,0,1.74-2,35.82,35.82,0,0,0,6.68-18.19A26.56,26.56,0,0,0,145.12,192.17Z" transform="translate(-97.14 -135.88)"/><path class="cls-1" d="M172.17,215.63c-6.12,3-13.63,1.5-16.87-3.65a9.09,9.09,0,0,1,1.63-11.77,13.15,13.15,0,0,1,12-3.45c5,1,8.91,4.19,9.08,9.73C178.2,211,175.46,213.76,172.17,215.63Zm-1.56-2.75s.33-.17.64-.36c4.7-2.89,5.06-8.15.63-11.21a10.64,10.64,0,0,0-13.12,1.44,5.91,5.91,0,0,0-.53,8C160.7,214,166.16,215.06,170.61,212.88Z" transform="translate(-97.14 -135.88)"/><path class="cls-1" d="M157.6,171.19a10.86,10.86,0,0,1,11,1,8.36,8.36,0,0,1,3.58,7c.1,7.46-7.07,13.38-13.9,13-5.93-.34-9.6-4.73-9.22-9.72S152.15,173.93,157.6,171.19Zm.38,3.34a9.89,9.89,0,0,0-5,5.08c-2,4.07.33,8.88,4.44,9.38a10.61,10.61,0,0,0,11-6.4c1.72-4.08.08-7.88-4.14-9A8.14,8.14,0,0,0,158,174.53Z" transform="translate(-97.14 -135.88)"/><path class="cls-1" d="M107.2,170.53c-2.65-6.07-1.36-12.35,3.36-16.08a8.84,8.84,0,0,1,10.91,0c6.16,4.46,7,14.41,1.32,19.79-4.46,4.23-10.61,3.26-14.45-1.85C107.91,171.82,107.58,171.16,107.2,170.53Zm15-10.75c-1.33-1.94-2.93-3.93-5.85-4.05s-5,1.53-6.25,4c-2,4-.94,9.55,2.1,12.2s7,2.4,9.42-1S123.86,163.78,122.15,159.78Z" transform="translate(-97.14 -135.88)"/><path class="cls-1" d="M138.53,155c4.88-2.58,9.94-1.41,12.84,3.2a11,11,0,0,1,1.25,7.87,13.17,13.17,0,0,1-7.25,10.07c-6.28,3.1-12.82-.2-13.84-7.51A13.81,13.81,0,0,1,138.53,155ZM144,173.42a10.91,10.91,0,0,0,5.67-9.55c.06-2.83-1-5.23-3.61-6.43s-5.42-.53-7.7,1.39a11,11,0,0,0-3.84,7.37,7.15,7.15,0,0,0,2.56,6.72C139.17,174.66,141.56,174.34,144,173.42Z" transform="translate(-97.14 -135.88)"/><path class="cls-1" d="M145.12,192.17a26.56,26.56,0,0,1,2.4,14.5,35.82,35.82,0,0,1-6.68,18.19,14.43,14.43,0,0,1-1.74,2c-1.68,1.6-3.7,1.69-5.15-.1-2.43-3-4.7-6.15-6.86-9.35-2.33-3.45-4.58-7-8.27-9.12-3.06-1.77-6.3-3.27-9.48-4.85a63.51,63.51,0,0,1-6.06-2.88c-4-2.54-4.26-3.78-1.06-7.3A33.91,33.91,0,0,1,126.28,182c5.16-.28,10,.92,14,4.32a61.12,61.12,0,0,1,5.17,5.6Z" transform="translate(-97.14 -135.88)"/><path class="cls-1" d="M170.61,212.88c-4.45,2.18-9.91,1.13-12.38-2.14a5.91,5.91,0,0,1,.53-8,10.64,10.64,0,0,1,13.12-1.44c4.43,3.06,4.07,8.32-.63,11.21C170.94,212.71,170.61,212.88,170.61,212.88Z" transform="translate(-97.14 -135.88)"/><path class="cls-1" d="M158,174.53a8.14,8.14,0,0,1,6.31-1c4.22,1.16,5.86,5,4.14,9a10.61,10.61,0,0,1-11,6.4c-4.11-.5-6.42-5.31-4.44-9.38A9.89,9.89,0,0,1,158,174.53Z" transform="translate(-97.14 -135.88)"/><path class="cls-1" d="M122.15,159.78c1.71,4,1.87,7.69-.58,11.14s-6.44,3.61-9.42,1-4.1-8.25-2.1-12.2c1.26-2.47,3.25-4.12,6.25-4S120.82,157.84,122.15,159.78Z" transform="translate(-97.14 -135.88)"/><path class="cls-1" d="M144,173.42c-2.45.92-4.84,1.24-6.92-.5a7.15,7.15,0,0,1-2.56-6.72,11,11,0,0,1,3.84-7.37c2.28-1.92,4.93-2.66,7.7-1.39s3.67,3.6,3.61,6.43A10.91,10.91,0,0,1,144,173.42Z" transform="translate(-97.14 -135.88)"/></g><g id="Calque_2" data-name="Calque 2"><path d="M153,186.51a31.65,31.65,0,0,1,2.56,12.54,37.93,37.93,0,0,1-4.9,19.07c-1.69,3-3.57,6.09-6.9,7.73a5.67,5.67,0,0,1-5.93-.56c-2.73-1.79-4.27-4.56-6.08-7.13-2.22-3.17-4.46-6.33-6.83-9.39-2-2.61-5-4-7.84-5.35-3.31-1.55-6.7-2.95-10-4.58-2.15-1.07-4.16-2.43-4.92-5-.94-3.17.73-5.47,2.61-7.62a36.59,36.59,0,0,1,16.94-10.64c7.89-2.53,15.78-2.53,23.13,1.84A21.39,21.39,0,0,1,153,186.51Zm-3.11.88.3-.29a61.22,61.22,0,0,0-5.18-5.6c-4-3.4-8.79-4.59-13.95-4.32A33.91,33.91,0,0,0,107,188.48c-3.21,3.52-2.92,4.76,1.06,7.3a62.44,62.44,0,0,0,6.06,2.89c3.18,1.57,6.41,3.07,9.48,4.85,3.69,2.13,5.94,5.66,8.27,9.11,2.16,3.2,4.43,6.35,6.85,9.35,1.46,1.8,3.47,1.7,5.16.1a13.72,13.72,0,0,0,1.73-2,35.71,35.71,0,0,0,6.69-18.19A26.56,26.56,0,0,0,149.89,187.39Z" transform="translate(-97.14 -135.88)"/><path d="M177,210.85c-6.12,3-13.63,1.51-16.88-3.65a9.09,9.09,0,0,1,1.64-11.77,13.17,13.17,0,0,1,12-3.45c5,1.05,8.91,4.2,9.08,9.74C183,206.19,180.24,209,177,210.85Zm-1.56-2.74s.33-.17.64-.37c4.69-2.89,5.06-8.15.63-11.21A10.65,10.65,0,0,0,163.54,198a5.92,5.92,0,0,0-.53,8C165.48,209.23,170.93,210.28,175.39,208.11Z" transform="translate(-97.14 -135.88)"/><path d="M162.37,166.42a10.83,10.83,0,0,1,11,1,8.37,8.37,0,0,1,3.58,7c.1,7.46-7.06,13.37-13.89,13-5.93-.34-9.6-4.72-9.22-9.72S156.92,169.16,162.37,166.42Zm.39,3.34a9.93,9.93,0,0,0-5,5.07c-2,4.07.34,8.89,4.45,9.38a10.58,10.58,0,0,0,11-6.4c1.73-4.08.08-7.87-4.13-9A8.09,8.09,0,0,0,162.76,169.76Z" transform="translate(-97.14 -135.88)"/><path d="M112,165.76c-2.65-6.08-1.36-12.35,3.35-16.09a8.84,8.84,0,0,1,10.92,0c6.16,4.46,7,14.4,1.32,19.79-4.46,4.22-10.61,3.26-14.45-1.86C112.68,167,112.36,166.38,112,165.76Zm15-10.76c-1.33-1.94-2.93-3.93-5.85-4.05s-5,1.53-6.25,4c-2,3.94-.94,9.54,2.09,12.19s7,2.4,9.43-1S128.64,159,126.93,155Z" transform="translate(-97.14 -135.88)"/><path d="M143.31,150.23c4.88-2.58,9.94-1.4,12.84,3.2a11.06,11.06,0,0,1,1.25,7.87,13.17,13.17,0,0,1-7.25,10.07c-6.28,3.1-12.83-.19-13.84-7.51A13.81,13.81,0,0,1,143.31,150.23Zm5.48,18.42a10.94,10.94,0,0,0,5.67-9.56c0-2.83-1-5.23-3.61-6.43s-5.42-.53-7.71,1.4a11,11,0,0,0-3.83,7.36,7.15,7.15,0,0,0,2.56,6.73C144,169.88,146.34,169.57,148.79,168.65Z" transform="translate(-97.14 -135.88)"/><path d="M118.28,135.88a13.61,13.61,0,0,1,3.27.44,13.83,13.83,0,0,1,3.21,1.32,1.36,1.36,0,0,1,.58,1.62,1.31,1.31,0,0,1-1.71.76c-.43-.19-.85-.43-1.28-.62a7.16,7.16,0,0,0-2-.65,14.34,14.34,0,0,0-2-.22,9.81,9.81,0,0,0-5.11,1.38,10.1,10.1,0,0,0-2.61,2.22,12.7,12.7,0,0,0-1.5,2.4,2.49,2.49,0,0,1-.57.75,1.23,1.23,0,0,1-1.64-.08,1.21,1.21,0,0,1-.32-1.51c.42-.79.85-1.58,1.32-2.35a10.62,10.62,0,0,1,1.86-2.15,12.47,12.47,0,0,1,3.16-2.11,12.76,12.76,0,0,1,4-1.12C117.47,135.91,118,135.9,118.28,135.88Z" transform="translate(-97.14 -135.88)"/><path d="M118.22,140.63a17.2,17.2,0,0,1,1.89.27,7.1,7.1,0,0,1,2.72,1.25,1.42,1.42,0,0,1,.13,1.95,1.49,1.49,0,0,1-1.9.3,5.81,5.81,0,0,0-2.36-.8,4.69,4.69,0,0,0-2.83.69,4.92,4.92,0,0,0-1.81,2.05c-.15.3-.31.6-.48.88a1.43,1.43,0,0,1-2.47-1.45c.29-.54.53-1.1.85-1.61a7.28,7.28,0,0,1,1.22-1.44,7.48,7.48,0,0,1,2.15-1.41A8.66,8.66,0,0,1,118.22,140.63Z" transform="translate(-97.14 -135.88)"/></g></svg>